<?xml version="1.0" encoding="UTF-8" standalone="no"?>
<!-- Created with Inkscape (http://www.inkscape.org/) -->

<svg
   version="1.1"
   id="svg1"
   width="773.33331"
   height="516"
   viewBox="0 0 773.33331 516"
   xmlns="http://www.w3.org/2000/svg"
   xmlns:svg="http://www.w3.org/2000/svg">
  <defs
     id="defs1" />
  <g
     id="g1">
    <path
       style="fill:#000000"
       d="m 319.09517,460.02771 c -3.11215,-2.74633 -3.56686,-4.57839 -5.37759,-21.66667 -5.86885,-55.3856 -7.91139,-60.06087 -48.04912,-109.98223 -22.39253,-27.85072 -27.32237,-34.73002 -27.32237,-38.12668 0,-5.11235 3.98618,-9.0022 9.22513,-9.0022 3.93732,0 3.53621,-0.33214 61.32216,50.77884 23.20926,20.52831 20.14674,19.58631 65.26879,20.07604 32.76548,0.35561 38.78639,0.10523 45.08114,-1.87471 6.335,-1.9926 11.9913,-6.45531 44.18391,-34.86027 20.30537,-17.91632 38.26886,-33.10785 39.91886,-33.75896 5.86463,-2.31423 12.33333,2.57503 12.33333,9.32194 0,1.5756 -11.63346,17.25843 -27.2799,36.77547 -15.00395,18.71561 -29.41536,37.84694 -32.02536,42.51406 -5.68232,10.16093 -10.61749,23.86112 -12.53782,34.80537 -1.29644,7.38862 -5.49025,45.25057 -5.49025,49.56633 0,1.03852 -1.47273,3.36094 -3.27273,5.16094 l -3.27272,3.27273 h -54.65292 -54.65292 z m 47.72432,-119.71932 c -14.13296,-2.79715 -28.63892,-14.30005 -34.91316,-27.68535 -3.15268,-6.72584 -3.55917,-9.198 -3.55089,-21.59533 0.008,-12.67246 0.35592,-14.6591 3.66419,-20.95078 7.18472,-13.66394 17.64662,-22.2456 32.23016,-26.43766 19.38663,-5.57272 41.6449,2.70329 53.23651,19.79426 19.85443,29.27386 3.70257,69.4348 -30.87251,76.76324 -7.92203,1.67913 -11.76481,1.7008 -19.7943,0.11162 z m -171.1809,-80.58368 c -3.32245,-1.06725 -8.51971,-4.06227 -11.54945,-6.65562 -7.99995,-6.84766 -11.08704,-14.19969 -12.02199,-28.63087 l -0.78245,-12.07718 h 34.37904 34.37903 l -0.64549,12.34061 c -0.70644,13.50574 -2.62582,18.76224 -9.5338,26.10957 -8.68714,9.23964 -22.2296,12.76663 -34.22489,8.91349 z m 316.37416,-0.0638 c -2.89664,-2.0448 -3,-2.84855 -3,-23.32858 0,-19.6059 0.19514,-21.31525 2.57901,-22.59106 1.61873,-0.86632 17.97377,-1.38025 43.92439,-1.38025 41.21366,0 41.352,0.009 43.42099,2.96334 2.87843,4.10954 3.02865,39.22267 0.18446,43.11516 -1.79045,2.45035 -4.08014,2.60816 -43,2.96366 -35.8125,0.32711 -41.49537,0.10264 -44.10885,-1.74227 z m 53.7401,-19.91131 c 5.06037,-2.11435 5.83221,-3.94551 2.25989,-5.36147 -12.8516,-5.09399 -27.51054,-9.86895 -28.47237,-9.27451 -1.29178,0.79836 -1.68711,22.31014 -0.43305,23.5642 0.69555,0.69555 15.42395,-4.23954 26.64553,-8.92822 z m -23.40677,-3.22189 c 0,-3.75833 0.3884,-6.83333 0.8631,-6.83333 2.37488,0 16.47023,5.84296 16.47023,6.82742 0,1.30839 -8.26237,4.99164 -13.66666,6.0924 -3.62019,0.73738 -3.66667,0.66022 -3.66667,-6.08649 z M 244.1328,232.17902 c 0.46395,-1.73322 0.85173,-5.40131 0.86175,-8.15131 0.0175,-4.82193 0.1844,-5 4.68487,-5 3.55745,0 4.66548,0.55461 4.66168,2.33333 -0.007,3.39011 -4.71275,10.57672 -8.11874,12.39956 -2.70213,1.44613 -2.86667,1.32159 -2.08956,-1.58158 z m -64.5401,-39.93976 c -1.61423,-2.26698 -3.23555,-6.78853 -3.60292,-10.04789 -0.64116,-5.68832 -0.41356,-6.15968 5.67205,-11.74687 6.75121,-6.19829 6.86351,-6.72858 3.93017,-18.55861 -0.63316,-2.55353 -0.37483,-4.16047 0.78396,-4.87664 2.81528,-1.73994 4.96532,-0.103 7.19986,5.48167 4.01144,10.02557 2.08868,18.01376 -5.45867,22.67828 -5.28426,3.26585 -5.80852,7.52176 -1.64657,13.36668 1.53514,2.1559 2.45397,4.79852 2.04185,5.87249 -1.26147,3.28733 -5.82454,2.17768 -8.91973,-2.16911 z m 20.03948,-0.21155 c -5.76375,-9.33792 -5.04816,-15.0148 2.77831,-22.04076 5.72896,-5.143 6.32161,-7.80299 3.69315,-16.57602 -1.27456,-4.25408 -1.23395,-5.47076 0.21242,-6.36466 2.82147,-1.74376 5.30197,-0.0799 7.41304,4.97265 3.97043,9.5026 1.786,18.37679 -5.91972,24.04871 -4.84011,3.56263 -5.11637,5.99241 -1.37843,12.12366 1.50786,2.4733 2.42445,5.3233 2.03686,6.33333 -1.28765,3.35559 -6.05475,2.00842 -8.83563,-2.49691 z m 20.25992,0 c -5.90843,-9.58391 -4.81013,-17.43184 3.12596,-22.33661 5.551,-3.43071 6.33776,-6.62827 3.66619,-14.90028 -1.8048,-5.58824 -1.85477,-6.8258 -0.31407,-7.778 4.71601,-2.91465 9.30924,4.86104 9.30924,15.75924 0,5.42164 -0.59016,6.55491 -6,11.52168 -3.3,3.02973 -6,6.31349 -6,7.29724 0,0.98375 1.25835,3.82469 2.79633,6.3132 1.53798,2.4885 2.45681,5.40932 2.04185,6.49071 -1.31291,3.42138 -5.81932,2.18465 -8.6255,-2.36718 z m 228.2253,-40.19182 c -2.93666,-2.52601 -3.71071,-4.33247 -3.71071,-8.65994 0,-7.01523 3.9071,-11.23471 10.5364,-11.3788 l 4.72848,-0.10277 0.004,-25.50491 0.004,-25.504905 3.66667,-1.44697 c 2.01667,-0.79583 20.14372,-6.33542 40.28233,-12.31018 26.30475,-7.80414 37.19323,-10.49835 38.66667,-9.56752 1.75484,1.10859 2.051,6.01954 2.051,34.01037 0,30.839875 -0.15282,32.884175 -2.66667,35.672415 -4.1022,4.54995 -8.11691,5.58385 -13.28978,3.42249 -12.38273,-5.17384 -8.28306,-22.10413 5.35252,-22.10413 2.97637,0 3.2706,-0.52778 3.2706,-5.86675 v -5.866755 l -15.66667,4.700675 c -8.61667,2.58537 -24.06667,7.21257 -34.33333,10.28267 l -18.66667,5.58201 -0.66667,15.70452 c -0.64471,15.18748 -0.78983,15.8103 -4.40768,18.91741 -4.77081,4.09731 -10.40631,4.10514 -15.15433,0.0211 z M 329.01275,118.86995 c -10.73024,-9.31091 -28.08588,-15.79936 -42.33333,-15.82641 l -8.33333,-0.0158 V 80.516585 c 0,-25.5547 -0.72906,-24.09897 12.08845,-24.1373 14.8313,-0.0444 31.34779,5.38957 40.31636,13.26407 l 4.92852,4.3273 v 24.52855 c 0,13.490695 -0.45,24.504155 -1,24.474345 -0.55,-0.0298 -3.1,-1.87641 -5.66667,-4.10357 z m 12,-20.390375 v -24.54814 l 4.33333,-3.66472 c 10.88463,-9.20519 34.80456,-15.8796 48,-13.39352 l 5,0.94202 v 22.60625 22.606245 h -7.71987 c -14.20861,0 -29.23491,5.44485 -42.07537,15.24619 -3.42531,2.6146 -6.52264,4.75381 -6.88296,4.75381 -0.36032,0 -0.65513,-11.04666 -0.65513,-24.548135 z"
       id="path1" />
  </g>
</svg>
